<svg width="175" height="178" viewBox="0 0 175 178" fill="none" xmlns="http://www.w3.org/2000/svg">
<path d="M43.8628 45.723C24.3857 36.6374 22.3558 42.2741 19.5364 51.2453C17.1723 58.7677 7.70712 61.2462 4.20419 68.3105C3.88363 68.957 3.66097 69.6429 3.52094 70.3622C-0.162645 89.2839 18.6644 120.725 19.5223 139.982C19.6417 142.663 19.6611 145.858 19.6611 149.831C19.6611 189.651 51.2593 156.86 91.9859 174.434C132.712 192.007 142.543 139.287 158.693 132.257C173.984 125.602 171.65 126.508 171.359 89.0399C171.325 84.6623 172.641 80.3828 173.984 76.2163C180.241 56.8077 156.251 57.0879 138.959 37.6699C137.565 36.1041 136.506 34.2373 135.474 32.412C126.417 16.3881 121.95 41.5811 98.1616 36.1842C95.9118 35.6738 93.8136 34.5737 91.7966 33.454C75.8702 24.6127 69.8777 33.1976 64.8357 41.5682C60.3517 49.0124 51.7385 49.3968 43.8628 45.723Z" fill="#F3F6FF"/>
<path d="M166 60H150C148.895 60 148 60.8954 148 62C148 63.1046 147.105 64 146 64H117C115.895 64 115 64.8954 115 66V98C115 99.1046 115.895 100 117 100H166C167.105 100 168 99.1046 168 98V62C168 60.8954 167.105 60 166 60Z" fill="#D0D3F2" stroke="#FEFEFE" stroke-width="0.5"/>
<path d="M164.5 88V92C164.5 92.5523 164.052 93 163.5 93H157.5" stroke="#FEFEFE" stroke-width="0.5"/>
<path d="M28 98H44C45.1046 98 46 98.8954 46 100C46 101.105 46.8954 102 48 102H77C78.1046 102 79 102.895 79 104V136C79 137.105 78.1046 138 77 138H28C26.8954 138 26 137.105 26 136V100C26 98.8954 26.8954 98 28 98Z" fill="#F4DDE5" stroke="#FEFEFE" stroke-width="0.5"/>
<path d="M29.5 110V106C29.5 105.448 29.9477 105 30.5 105H36.5" stroke="#FEFEFE" stroke-width="0.5"/>
<rect x="52" y="95.1139" width="58" height="53" rx="4" transform="rotate(-30.13 52 95.1139)" fill="#FEFEFE"/>
<rect x="57.4674" y="96.5656" width="50" height="45" transform="rotate(-30.13 57.4674 96.5656)" fill="#E7EFFC"/>
<circle cx="85.1132" cy="94.3952" r="3.75" transform="rotate(-30.13 85.1132 94.3952)" stroke="#FEFEFE" stroke-width="0.5"/>
<path d="M75.1481 125.037L80.6037 115.512L88.4148 115.025L110.319 89.0162" stroke="#FEFEFE" stroke-width="0.5"/>
<rect x="99.3838" y="100.977" width="36.1132" height="33" rx="4" fill="#FEFEFE"/>
<rect x="101.874" y="103.467" width="31.1321" height="28.0189" fill="#D2DCE8"/>
<circle cx="117.44" cy="110.939" r="2.24057" stroke="#FEFEFE" stroke-width="0.5"/>
<path d="M102.497 124.326L108.723 118.722L119.308 122.458L123.355 115.92L132.384 119.967" stroke="#FEFEFE" stroke-width="0.5"/>
<rect x="76.3838" y="128.995" width="25.1698" height="23" rx="4" transform="rotate(-25.9607 76.3838 128.995)" fill="#FEFEFE"/>
<rect x="78.7043" y="129.796" width="21.6981" height="19.5283" transform="rotate(-25.9607 78.7043 129.796)" fill="#C5DCFE"/>
<circle cx="90.7383" cy="129.728" r="1.48585" transform="rotate(-25.9607 90.7383 129.728)" stroke="#FEFEFE" stroke-width="0.5"/>
<path d="M85.4585 142.676L87.6505 137.265L95.4233 136.377L95.9647 131.045L102.857 130.827" stroke="#FEFEFE" stroke-width="0.5"/>
<circle cx="142" cy="5" r="5" fill="#F3F6FF"/>
</svg>
