<?xml version="1.0" encoding="utf-8"?>
<!-- Generator: Adobe Illustrator 25.1.0, SVG Export Plug-In . SVG Version: 6.00 Build 0)  -->
<svg version="1.1" xmlns="http://www.w3.org/2000/svg" xmlns:xlink="http://www.w3.org/1999/xlink" x="0px" y="0px"
	 viewBox="0 0 500 500" style="enable-background:new 0 0 500 500;" xml:space="preserve">
<style type="text/css">
	.st0{fill:#E1E8FD;}
	.st1{opacity:0.7;fill:#FFFFFF;}
	.st2{fill:#263238;}
	.st3{opacity:0.2;fill-opacity:0.7;}
	.st4{clip-path:url(#XMLID_2_);}
	.st5{opacity:0.1;clip-path:url(#XMLID_2_);fill-opacity:0.7;}
	.st6{fill:#FFFFFF;}
	.st7{opacity:0.4;fill:#FBA23F;}
	.st8{fill:none;stroke:#263238;stroke-linecap:round;stroke-linejoin:round;stroke-miterlimit:10;}
	.st9{fill:#FBA23F;stroke:#263238;stroke-miterlimit:10;}
	.st10{opacity:0.3;fill-opacity:0.7;}
	.st11{opacity:0.3;clip-path:url(#XMLID_3_);fill-opacity:0.7;}
	.st12{opacity:0.2;clip-path:url(#XMLID_4_);fill-opacity:0.7;}
	.st13{clip-path:url(#XMLID_5_);fill:#BFBFBF;}
	.st14{clip-path:url(#XMLID_5_);}
	.st15{fill:#70C4FB;stroke:#263238;stroke-linecap:round;stroke-linejoin:round;stroke-miterlimit:10;}
	.st16{opacity:0.5;fill:#FFFFFF;}
	.st17{fill:#FC67A5;stroke:#263238;stroke-linecap:round;stroke-linejoin:round;stroke-miterlimit:10;}
	.st18{fill:#FBA23F;stroke:#263238;stroke-linecap:round;stroke-linejoin:round;stroke-miterlimit:10;}
	.st19{opacity:0.7;fill:#A378E3;}
	.st20{fill:#A378E3;}
	.st21{fill:#D1D1D1;stroke:#263238;stroke-linecap:round;stroke-linejoin:round;stroke-miterlimit:10;}
	.st22{opacity:0.1;clip-path:url(#XMLID_5_);fill-opacity:0.7;}
	.st23{clip-path:url(#XMLID_6_);fill:#263238;}
	.st24{opacity:0.4;clip-path:url(#XMLID_7_);fill:#FBA23F;}
	.st25{font-family:'BebasNeue';}
	.st26{font-size:17.2218px;}
	.st27{opacity:0.4;clip-path:url(#XMLID_8_);fill:#FBA23F;}
</style>
<g id="Background_Simple">
	<g>
		<path class="st0" d="M158.12,453.93C41.95,409.08,72.65,346.2,51.29,263.03C29.93,179.86,32.25,148.05,84.33,89.92
			C136.41,31.79,226.13,10.27,290.2,79c64.07,68.73,123.36,62.18,159.98,113.23c36.62,51.05,29.79,111.52-36.39,154.18
			S301.36,509.23,158.12,453.93z"/>
	</g>
	<g>
		<path class="st1" d="M67.93,167.09c0,0-27.88,71.99,11.3,144.5c39.17,72.52,119.88,110.8,184.47,143.55
			c64.59,32.75,131.66,16.8,163.53-36.84c31.87-53.64-11.85-91.93-11.9-168.42c-0.05-76.49,11.45-96.74-29.96-161.36
			c-41.41-64.62-143.06-78.93-219.9-31C88.63,105.45,67.93,167.09,67.93,167.09z"/>
	</g>
</g>
<g id="Files">
	<g>
		<path class="st2" d="M207.64,114.64c0.16,0,0.32-0.08,0.41-0.22l27.36-40.36c0.01-0.02,0.02-0.04,0.03-0.06
			c0.01-0.02,0.02-0.04,0.02-0.06c0.03-0.08,0.04-0.17,0.03-0.26l-1.2-6.23c0,0,0,0,0,0l-1.34-6.97c0,0,0,0,0,0l-1.12-5.81
			c-0.02-0.09-0.06-0.16-0.12-0.23c-0.01-0.02-0.03-0.03-0.04-0.04c-0.02-0.01-0.03-0.03-0.05-0.05l-32.59-22.09
			c-0.23-0.15-0.54-0.09-0.69,0.13l-35.04,51.7c-0.15,0.23-0.1,0.54,0.13,0.69l43.92,29.77
			C207.44,114.61,207.54,114.64,207.64,114.64z M224.36,65.96l6.73-9.92l3.2,16.65L224.36,65.96z M223.25,65.81
			c-0.15,0.23-0.1,0.54,0.13,0.69l7.21,4.89l-12.01,17.72l-35.67-24.18l17.34-25.58l28.05,19.01L223.25,65.81z M198.89,33.37
			l31.76,21.53l-1.79,2.64l-28.47-19.3c-0.23-0.15-0.54-0.1-0.69,0.13l-17.9,26.41c-0.07,0.11-0.1,0.24-0.08,0.38
			c0.03,0.13,0.1,0.25,0.21,0.32l36.5,24.74c0.09,0.06,0.18,0.09,0.28,0.09c0.16,0,0.32-0.08,0.41-0.22l12.29-18.13l2.89,1.96
			l-26.8,39.54l-43.09-29.21L198.89,33.37z"/>
		<path class="st2" d="M196.42,57.83l2.15,11.19c0.05,0.24,0.26,0.41,0.49,0.41c0.03,0,0.06,0,0.09-0.01
			c0.27-0.05,0.45-0.31,0.4-0.59l-2.05-10.7l10.7-2.05c0.27-0.05,0.45-0.31,0.4-0.59c-0.05-0.27-0.32-0.45-0.59-0.4l-11.19,2.15
			C196.54,57.29,196.37,57.56,196.42,57.83z"/>
		<path class="st2" d="M208.8,75.1c-0.27,0.05-0.45,0.31-0.4,0.59c0.05,0.24,0.26,0.41,0.49,0.41c0.03,0,0.06,0,0.09-0.01
			l11.19-2.15c0.27-0.05,0.45-0.31,0.4-0.59l-2.15-11.19c-0.05-0.27-0.32-0.45-0.59-0.4c-0.27,0.05-0.45,0.31-0.4,0.59l2.05,10.7
			L208.8,75.1z"/>
		<path class="st2" d="M202,71.53c0.1,0.11,0.23,0.16,0.37,0.16c0.12,0,0.24-0.04,0.34-0.13l12.26-11.21
			c0.2-0.19,0.22-0.5,0.03-0.71c-0.19-0.2-0.5-0.22-0.71-0.03l-12.26,11.21C201.83,71.01,201.81,71.32,202,71.53z"/>
		<polygon class="st2" points="189.27,76.88 186.37,81.16 184.58,79.95 187.48,75.67 185.91,74.61 179.15,84.59 180.72,85.65 
			183.62,81.38 185.4,82.58 182.5,86.86 184.1,87.94 190.86,77.96 		"/>
		<polygon class="st2" points="195.43,83.14 196.39,81.71 191.54,78.42 190.58,79.85 192.22,80.96 186.42,89.52 187.99,90.58 
			193.79,82.03 		"/>
		<polygon class="st2" points="201.47,85.15 195.61,91.52 195.58,91.5 199.24,83.64 197.06,82.16 190.3,92.15 191.67,93.07 
			196.45,86.02 196.48,86.04 192.83,93.87 194.32,94.87 200.23,88.43 200.25,88.45 195.4,95.61 196.88,96.61 203.65,86.63 		"/>
		<polygon class="st2" points="204.79,87.4 198.02,97.38 202.17,100.2 203.14,98.77 200.56,97.02 206.36,88.46 		"/>
		<path class="st2" d="M62.88,226.65l-2.45,8.87c-0.25,0.9-0.77,0.98-1.35,0.82c-0.2-0.06-0.43-0.12-0.63-0.19l-0.46,1.66
			c0.29,0.12,0.54,0.18,0.87,0.28c1.38,0.38,2.79,0.13,3.43-2.2l2.41-8.73L62.88,226.65z"/>
		<path class="st2" d="M70.57,231.87c0.51-1.86-0.1-3.12-1.93-3.62l-2.69-0.74l-3.21,11.62l1.83,0.5l1.21-4.37l0.86,0.24
			c1.83,0.5,3-0.26,3.52-2.12L70.57,231.87z M68.77,231.25l-0.48,1.74c-0.23,0.83-0.62,1.01-1.2,0.85l-0.86-0.24l1.09-3.94
			l0.86,0.24C68.76,230.06,69,230.42,68.77,231.25z"/>
		<path class="st2" d="M74.82,229.81c-1.79-0.5-3.02,0.31-3.53,2.17l-1.67,6.04c-0.51,1.86,0.12,3.18,1.92,3.67
			c1.79,0.5,3.02-0.31,3.53-2.17l1.02-3.69l-2.56-0.71l-0.46,1.66l0.83,0.23l-0.59,2.14c-0.23,0.83-0.68,1.03-1.26,0.87
			c-0.58-0.16-0.86-0.56-0.63-1.39l1.73-6.28c0.23-0.83,0.68-1.04,1.26-0.88c0.58,0.16,0.86,0.58,0.63,1.41l-0.34,1.25l1.73,0.48
			l0.31-1.13C77.25,231.62,76.61,230.3,74.82,229.81z"/>
		<path class="st2" d="M103.1,208.35c0-0.09-0.01-0.17-0.06-0.25l-3.12-5.51c0,0,0-0.01,0-0.01l-3.5-6.18c0,0-0.01-0.01-0.01-0.01
			l-2.92-5.14c-0.04-0.08-0.11-0.13-0.19-0.18c-0.02-0.01-0.03-0.02-0.05-0.03c-0.02-0.01-0.04-0.02-0.06-0.03l-37.95-10.48
			c-0.13-0.04-0.27-0.02-0.38,0.05c-0.12,0.07-0.2,0.17-0.24,0.3L38,241.09c-0.07,0.27,0.08,0.54,0.35,0.62l51.15,14.12
			c0.04,0.01,0.09,0.02,0.13,0.02c0.22,0,0.42-0.15,0.48-0.37l12.98-47c0.01-0.02,0-0.04,0-0.07
			C103.1,208.39,103.1,208.37,103.1,208.35z M95.73,214.53l-3.94-5.95c-0.14-0.21-0.41-0.28-0.63-0.18l-16.98,7.92l-8.06-11.77
			c-0.13-0.19-0.38-0.27-0.6-0.18l-13.19,5.4l6.33-22.92l32.67,9.02l-2.4,8.68c-0.07,0.27,0.08,0.54,0.35,0.62l8.4,2.32
			L95.73,214.53z M52,210.99l13.53-5.54l8.07,11.78c0.14,0.2,0.4,0.27,0.62,0.17l16.97-7.92l4.18,6.32l-3.4,12.31l-41.54-11.47
			L52,210.99z M90.03,204.35l3.19-11.55l8.36,14.74L90.03,204.35z M89.28,254.73L39.1,240.87l16.36-59.24l36.98,10.21l-0.85,3.07
			l-33.15-9.15c-0.27-0.07-0.54,0.08-0.62,0.35l-8.49,30.76c-0.04,0.13-0.02,0.26,0.05,0.38c0.07,0.12,0.17,0.2,0.3,0.24
			l42.51,11.74c0.04,0.01,0.09,0.02,0.13,0.02c0,0,0,0,0,0c0,0,0,0,0,0c0,0,0,0,0,0c0.09,0,0.17-0.02,0.24-0.06
			c0.01-0.01,0.02-0.02,0.03-0.03c0.02-0.01,0.03-0.02,0.04-0.03c0.07-0.06,0.14-0.14,0.16-0.24l5.83-21.11l3.36,0.93L89.28,254.73z
			"/>
		<path class="st2" d="M72.27,193.64c-1.3-0.36-2.66-0.19-3.83,0.47c-1.17,0.66-2.01,1.74-2.37,3.04c-0.74,2.68,0.84,5.46,3.52,6.2
			c0.45,0.12,0.9,0.18,1.35,0.18c0.86,0,1.71-0.22,2.48-0.66c1.17-0.66,2.01-1.74,2.37-3.04c0.36-1.3,0.19-2.66-0.47-3.83
			C74.65,194.85,73.57,194,72.27,193.64z M74.83,199.58c-0.29,1.04-0.96,1.91-1.9,2.44c-0.94,0.53-2.03,0.67-3.07,0.38
			c-2.15-0.59-3.41-2.82-2.82-4.97c0.29-1.04,0.96-1.91,1.9-2.44c0.62-0.35,1.3-0.53,1.99-0.53c0.36,0,0.72,0.05,1.08,0.15
			C74.16,195.2,75.42,197.43,74.83,199.58z"/>
		<path class="st2" d="M421.73,124.83l-20.99-44.01c-0.01-0.02-0.03-0.03-0.04-0.05c-0.01-0.02-0.02-0.03-0.04-0.05
			c-0.06-0.07-0.12-0.12-0.21-0.15L382.2,74.1c-0.08-0.03-0.17-0.03-0.26-0.01c-0.02,0-0.04,0.01-0.06,0.02
			c-0.02,0.01-0.04,0.01-0.06,0.02l-35.53,16.95c-0.25,0.12-0.36,0.42-0.24,0.67l26.89,56.37c0.06,0.12,0.16,0.21,0.28,0.26
			c0.05,0.02,0.11,0.03,0.17,0.03c0.07,0,0.15-0.02,0.21-0.05l47.89-22.84C421.74,125.38,421.85,125.08,421.73,124.83z
			 M388.16,86.26L383,75.45l15.98,5.66L388.16,86.26z M387.47,87.15c0.09,0.18,0.26,0.28,0.45,0.28c0.07,0,0.15-0.02,0.21-0.05
			l7.86-3.75l9.21,19.32l-38.9,18.55l-13.31-27.9l30.59-14.59L387.47,87.15z M373.62,147.23l-26.46-55.47l34.63-16.52l1.37,2.88
			l-31.04,14.81c-0.12,0.06-0.21,0.16-0.26,0.28c-0.04,0.12-0.04,0.26,0.02,0.38l13.74,28.8c0.09,0.18,0.26,0.28,0.45,0.28
			c0.07,0,0.15-0.02,0.21-0.05l39.8-18.98c0.25-0.12,0.36-0.42,0.24-0.67L396.9,83.2l3.15-1.5l20.56,43.11L373.62,147.23z"/>
		<path class="st2" d="M372.03,109.31c0.52,0,1.05-0.12,1.59-0.38c3.34-1.59,3.73-5.21,3.96-9.15c0.03-0.01,0.05-0.01,0.08-0.02
			l2.77-1.32c1.07,3.65,2.05,6.98,2.32,7.88c0.38,1.27,1.15,1.23,1.46,1.15c1.04-0.26,2.03-2.2,1.83-3.19
			c-0.06-0.27-0.33-0.44-0.59-0.39c-0.27,0.06-0.45,0.32-0.39,0.59c0.07,0.33-0.24,1.19-0.7,1.72c-0.23,0.26-0.38,0.31-0.4,0.31
			c0,0-0.13-0.07-0.25-0.47c-0.27-0.91-1.27-4.31-2.36-8.03l2.98-1.42c0.25-0.12,0.36-0.42,0.24-0.67
			c-0.12-0.25-0.42-0.36-0.67-0.24l-2.84,1.35c-1.49-5.09-3.05-10.41-3.08-10.51c-0.07-0.24-0.29-0.38-0.55-0.35
			c-0.25,0.03-0.43,0.24-0.43,0.49c0,0.1,0,0.3,0,0.6c0,1.6,0.02,5.83-0.28,10.13c-0.04,0.55-0.07,1.09-0.1,1.63
			c-0.24,4.23-0.43,7.58-3.43,9.01c-1.05,0.5-2.08,0.32-2.74-0.48c-0.75-0.9-1-2.62,0.2-4.27c2.15-2.95,4.08-1.73,4.17-1.67
			c0.23,0.15,0.54,0.1,0.69-0.13c0.16-0.23,0.1-0.54-0.13-0.7c-0.03-0.02-2.8-1.86-5.54,1.91c-1.51,2.08-1.14,4.31-0.16,5.5
			C370.29,108.92,371.13,109.31,372.03,109.31z M377.99,90.12c0.59,2.03,1.39,4.73,2.16,7.35l-2.5,1.19c0.02-0.4,0.05-0.8,0.07-1.2
			C377.9,94.78,377.97,92.13,377.99,90.12z"/>
		<path class="st2" d="M384.28,99.74c0.11,1.06,0.6,1.9,1.4,2.34c0.37,0.21,0.77,0.31,1.16,0.31c0.32,0,0.63-0.07,0.92-0.2
			c1.5-0.71,2.28-1.71,2.58-3.1c0.25,0.63,0.51,1.07,0.77,1.2c0.19,0.1,0.41,0.1,0.6,0.01c1.49-0.71,1.47-2.3,1.47-2.37
			c-0.01-0.27-0.22-0.45-0.51-0.49c-0.28,0-0.5,0.23-0.49,0.5c0,0.04,0,0.86-0.69,1.33c-0.38-0.64-0.94-2.88-1.36-5.02
			c-0.04-0.26-0.09-0.52-0.15-0.79c-0.05-0.27-0.31-0.44-0.58-0.4c-0.2,0.04-0.34,0.18-0.39,0.36c-0.09-0.04-0.19-0.05-0.3-0.03
			C388.66,93.41,383.74,94.46,384.28,99.74z M388.91,94.38c0.08-0.02,0.15-0.05,0.21-0.1c0.02,0.08,0.03,0.17,0.05,0.26
			c0.72,4.18,0.26,5.74-1.85,6.75c-0.34,0.16-0.78,0.13-1.16-0.07c-0.5-0.28-0.82-0.84-0.9-1.57
			C384.83,95.27,388.74,94.41,388.91,94.38z"/>
		<path class="st2" d="M386.89,121.9c-0.83-1.74-2.22-2.3-3.9-1.5c-1.68,0.8-2.12,2.23-1.29,3.98l2.7,5.66
			c0.83,1.74,2.22,2.3,3.9,1.5c1.68-0.8,2.12-2.23,1.29-3.98L386.89,121.9z M387.56,129.98c-0.54,0.26-1.03,0.13-1.4-0.65l-2.8-5.88
			c-0.37-0.78-0.17-1.24,0.37-1.5c0.54-0.26,1.03-0.13,1.4,0.65l2.8,5.88C388.3,129.26,388.1,129.72,387.56,129.98z"/>
		<polygon class="st2" points="392.28,118.04 391.54,116.48 386.25,119 386.99,120.56 388.78,119.7 393.23,129.03 394.94,128.22 
			390.49,118.89 		"/>
		<polygon class="st2" points="398.51,119.09 396.3,120.15 394.73,116.86 397.55,115.52 396.81,113.97 392.28,116.12 397.47,127.01 
			399.18,126.19 397.04,121.7 399.25,120.65 		"/>
		<path class="st2" d="M250.15,365.88c-0.01-0.02-0.02-0.04-0.03-0.06c-0.01-0.02-0.02-0.04-0.03-0.06
			c-0.05-0.07-0.11-0.13-0.19-0.17l-5.75-2.68c0,0,0,0,0,0l-6.44-3c0,0,0,0,0,0l-5.37-2.5c-0.08-0.04-0.17-0.04-0.26-0.04
			c-0.02,0-0.04,0-0.06,0.01c-0.02,0-0.05,0-0.07,0.01l-36.99,13.48c-0.12,0.04-0.23,0.14-0.28,0.26c-0.06,0.12-0.06,0.26-0.02,0.38
			l21.39,58.68c0.05,0.12,0.14,0.23,0.26,0.28c0.07,0.03,0.14,0.05,0.21,0.05c0.06,0,0.12-0.01,0.17-0.03l49.85-18.17
			c0.26-0.09,0.39-0.38,0.3-0.64L250.15,365.88z M237.11,370.1l-4.1-11.26l15.37,7.16L237.11,370.1z M240.3,370
			c-0.08,0.23-0.24,0.43-0.49,0.52c-0.21,0.08-0.43,0.07-0.63-0.03c-0.03-0.01-0.05-0.04-0.08-0.06L240.3,370z M236.34,370.91
			c0.07,0.2,0.27,0.33,0.47,0.33c0.06,0,0.11-0.01,0.17-0.03l1.07-0.39c0.18,0.25,0.41,0.45,0.7,0.59c0.24,0.11,0.49,0.16,0.74,0.17
			c0.69,3.44,1.08,11.37-8.5,15.66l-0.06,0.02l-0.2-0.56c-0.05-0.12-0.14-0.23-0.26-0.28c-0.12-0.06-0.26-0.06-0.38-0.02l-2.19,0.8
			c-0.26,0.09-0.39,0.38-0.3,0.64l0.2,0.56l-0.05,0.02c-10.09,2.88-14.9-3.44-16.59-6.52c0.19-0.17,0.35-0.37,0.46-0.6
			c0.21-0.44,0.23-0.94,0.06-1.4c-0.34-0.95-1.39-1.44-2.34-1.09c-0.95,0.34-1.43,1.39-1.09,2.34c0.27,0.74,0.97,1.2,1.72,1.2
			c0.1,0,0.2-0.01,0.3-0.03c0.68,1.24,1.85,2.98,3.63,4.52c1.95,1.68,4.9,3.3,9.02,3.3c0.04,0,0.08-0.01,0.12-0.01l-6.88,2.51
			l-0.2-0.56c-0.05-0.12-0.14-0.23-0.26-0.28c-0.12-0.06-0.26-0.06-0.38-0.02l-2.19,0.8c-0.26,0.09-0.39,0.38-0.3,0.64l0.8,2.19
			c0.07,0.2,0.27,0.33,0.47,0.33c0.06,0,0.11-0.01,0.17-0.03l2.19-0.8c0.12-0.05,0.23-0.14,0.28-0.26c0.06-0.12,0.06-0.26,0.02-0.38
			l-0.25-0.69l11.58-4.22c0.02-0.01,0.05-0.02,0.07-0.02l0.25,0.69c0.05,0.12,0.14,0.23,0.26,0.28c0.07,0.03,0.14,0.05,0.21,0.05
			c0.06,0,0.12-0.01,0.17-0.03l2.19-0.8c0.26-0.09,0.39-0.38,0.3-0.64l-0.25-0.68c0.03-0.01,0.06-0.03,0.09-0.04l11.56-4.21
			l0.25,0.69c0.07,0.2,0.27,0.33,0.47,0.33c0.06,0,0.11-0.01,0.17-0.03l2.19-0.8c0.26-0.09,0.39-0.38,0.3-0.64l-0.8-2.19
			c-0.09-0.26-0.38-0.39-0.64-0.3l-2.19,0.8c-0.26,0.09-0.39,0.38-0.3,0.64l0.2,0.56l-6.88,2.51c5.67-4.7,5.31-11.14,4.73-14.19
			c0.61-0.35,0.95-1.02,0.9-1.7l3.82-1.39l7.33,20.11l-40.49,14.76l-10.59-29.04l31.84-11.61L236.34,370.91z M230.42,388.76
			l-1.25,0.46l-0.46-1.25l1.25-0.46L230.42,388.76z M209.2,380.81c-0.16-0.43,0.07-0.9,0.49-1.06c0.09-0.03,0.19-0.05,0.28-0.05
			c0.34,0,0.65,0.21,0.78,0.54c0.08,0.21,0.07,0.43-0.03,0.63c-0.09,0.2-0.26,0.35-0.47,0.43
			C209.83,381.46,209.35,381.24,209.2,380.81z M215.65,394.15l-1.25,0.46l-0.46-1.25l1.25-0.46L215.65,394.15z M243.5,382.58
			l1.25-0.46l0.46,1.25l-1.25,0.46L243.5,382.58z M216.83,429.4l-21.05-57.74l36.05-13.14l1.09,2.99l-32.31,11.78
			c-0.26,0.09-0.39,0.38-0.3,0.64l10.93,29.98c0.05,0.12,0.14,0.23,0.26,0.28c0.07,0.03,0.14,0.05,0.21,0.05
			c0.06,0,0.12-0.01,0.17-0.03l41.43-15.1c0.26-0.09,0.39-0.38,0.3-0.64l-7.5-20.58l3.27-1.19l16.36,44.87L216.83,429.4z"/>
		<polygon class="st2" points="231.33,413.79 230.12,410.47 232.57,409.58 231.98,407.96 229.53,408.85 228.38,405.69 
			231.46,404.57 230.87,402.95 226.01,404.72 230.14,416.05 235,414.28 234.41,412.67 		"/>
		<path class="st2" d="M238.27,403.43c-0.66-1.81-1.89-2.48-3.67-1.83l-2.62,0.96l4.13,11.33l1.78-0.65l-1.55-4.26l0.84-0.31
			c1.78-0.65,2.29-1.96,1.63-3.77L238.27,403.43z M236.58,407.05l-0.84,0.31l-1.4-3.84l0.84-0.31c0.57-0.21,0.97-0.06,1.26,0.75
			l0.62,1.7C237.36,406.47,237.15,406.85,236.58,407.05z"/>
		<path class="st2" d="M242.99,404.27c-1.54-0.59-2.12-1.08-2.42-1.91c-0.29-0.81-0.08-1.23,0.48-1.44c0.57-0.21,1-0.02,1.3,0.79
			l0.17,0.47l1.68-0.61l-0.13-0.36c-0.66-1.81-1.93-2.52-3.66-1.89c-1.73,0.63-2.25,1.99-1.58,3.8c0.47,1.29,1.28,2.06,3.25,2.83
			c1.54,0.59,2.12,1.08,2.42,1.91c0.29,0.81,0.04,1.23-0.52,1.44c-0.57,0.21-1.03,0.04-1.32-0.76l-0.29-0.81l-1.68,0.61l0.25,0.7
			c0.66,1.81,1.94,2.52,3.69,1.88c1.75-0.64,2.28-2,1.62-3.82C245.77,405.81,244.96,405.04,242.99,404.27z"/>
	</g>
	<path class="st3" d="M247.22,245.62l-8.67,60.48l37.85,9.19c0,0-2.05,18.73-0.61,19.06c1.44,0.32,7.8,2.2,7.8,2.2
		s-0.03,18.15,0,28.5c0.03,10.35,11.67,18.7,19.7,34.7c8.03,16,29.43,16.8,48.4,50.03l17.08-72.79l-40.73-94.17l-42.78-31.68
		L247.22,245.62z"/>
</g>
<g id="Book_2">
	<g>
		<defs>
			<path id="XMLID_147_" d="M454.25,123.95l-28.24,240.56c-0.18,1.58-1.04,2.91-2.26,3.73c-1.01,0.69-2.27,1.04-3.58,0.88
				l-183.7-21.57l29.47-251.02l183.7,21.57C452.53,118.45,454.59,121.06,454.25,123.95z"/>
		</defs>
		<use xlink:href="#XMLID_147_"  style="overflow:visible;fill:#9777DF;"/>
		<clipPath id="XMLID_2_">
			<use xlink:href="#XMLID_147_"  style="overflow:visible;"/>
		</clipPath>
		<g class="st4">
			<path class="st2" d="M338.29,195.7l-1.08,9.22l-25.19,44.9l19.65,2.31l-1.1,9.4l-30.28-3.55l1.08-9.22l25.19-44.9l-18.71-2.2
				l1.1-9.4L338.29,195.7z"/>
			<path class="st2" d="M344.4,196.42l10.34,1.21l-7.73,65.82l-10.34-1.21L344.4,196.42z"/>
			<path class="st2" d="M391.02,218.38l-1,8.56c-1.24,10.53-6.99,15.67-17.33,14.46l-4.89-0.57l-2.9,24.73l-10.34-1.21l7.73-65.82
				l15.23,1.79C387.85,201.52,392.25,207.85,391.02,218.38z M371.51,209.13l-2.62,22.29l4.89,0.57c3.29,0.39,5.25-0.91,5.81-5.61
				l1.16-9.87c0.55-4.7-1.06-6.42-4.35-6.8L371.51,209.13z"/>
		</g>
		<path class="st5" d="M350.53,324.01c0.09,4.73-3.64,8.65-8.36,8.78l-104.32,3.02l28.09-239.27l80.2,9.42L350.53,324.01z"/>
		<use xlink:href="#XMLID_147_"  style="overflow:visible;fill:none;stroke:#263238;stroke-miterlimit:10;"/>
	</g>
</g>
<g id="Book_1">
	<g>
		<path class="st3" d="M115.36,287.05c0,0,6.34-10.03,14.9-14.65c0,0,24.39,17.97,33.09,56.13c0,0,7.12,17.35,7.91,30.13
			c0.79,12.78-14.99,40.19-19.36,51.41c-4.37,11.22-19.08,2.52-42.19,39.7l17.41-60.93l-9.45-54.5L115.36,287.05z"/>
		<g>
			<path class="st6" d="M113.48,459.41c6.06-19.88,15.52-50.17,18.37-55.02c4.3-7.32,7.17-5.94,12.25-10.6
				c5.08-4.66,9.97-29.76,6.77-40.16c-0.66-2.15-1.34-4.06-2.01-5.78l-0.01-0.01c-0.55-1.4-1.11-2.69-1.65-3.86
				c-0.2-0.43-0.39-0.85-0.59-1.26c-1.77-3.66-3.36-6.2-4.37-8.36c-1.79-3.87-1.43-14.78-6.49-30.14
				c-5.06-15.35-7.78-28.93-18.8-24.98c-4.49,1.61-6.62,4.26-6.98,15.64c-0.35,11.38-0.72,23.26,1.44,26.84
				c0.68,1.13,1.32,2.23,1.89,3.21c0.19,0.33,0.36,0.63,0.53,0.92c0.63,1.08,1.11,1.93,1.35,2.37c0.05,0.06,0.07,0.13,0.1,0.17
				c0.04,0.07,0.06,0.12,0.07,0.14c-0.01-0.01-0.03-0.02-0.05-0.03c-0.04-0.03-0.09-0.05-0.16-0.1c-0.13-0.08-0.31-0.2-0.53-0.34
				c-0.18-0.13-0.41-0.27-0.65-0.45c-0.37-0.26-0.81-0.58-1.29-0.96c-0.24-0.18-0.5-0.39-0.77-0.62c-0.14-0.11-0.27-0.22-0.42-0.34
				c-0.28-0.23-0.57-0.48-0.88-0.75c-0.32-0.28-0.64-0.58-0.99-0.9c-0.39-0.36-0.79-0.74-1.21-1.16c-0.96-0.95-1.98-2.03-3.04-3.25
				c-0.19-0.22-0.39-0.44-0.58-0.68c-0.31-0.37-0.62-0.74-0.93-1.13c-0.28-0.35-0.56-0.72-0.84-1.08c-0.41-0.52-0.81-1.06-1.21-1.62
				c-0.21-0.28-0.42-0.56-0.61-0.85c-0.41-0.58-0.82-1.18-1.22-1.79c-0.41-0.62-0.82-1.26-1.22-1.93c-0.21-0.33-0.41-0.66-0.61-1.01
				c-0.41-0.68-0.81-1.39-1.21-2.11c-0.2-0.36-0.4-0.73-0.6-1.11c-0.24-0.44-0.46-0.88-0.7-1.33c-0.16-0.32-0.33-0.65-0.48-0.98
				c-0.2-0.4-0.39-0.8-0.58-1.21c-0.15-0.32-0.31-0.64-0.45-0.97c-0.19-0.42-0.38-0.84-0.57-1.28s-0.38-0.88-0.56-1.32
				c-0.19-0.44-0.37-0.9-0.55-1.35c-1.11-2.75-2.13-5.7-3.05-8.89c-0.11-0.36-0.22-0.73-0.32-1.11c-0.2-0.72-0.4-1.43-0.58-2.17
				c-0.14-0.55-0.29-1.11-0.43-1.69c-0.68-2.85-1.29-5.86-1.79-9.05c0,0-9.27,9.37-9.27,21.3c0,19.13-2.39,41.13-2.15,54.85
				C74.98,358.6,77,379.8,77,380.97c0,0.01-0.01,0.02-0.02,0.05c0,0.02-0.01,0.04-0.03,0.06c0,0.01,0,0.03-0.01,0.04
				c-0.39,0.81-2.67,4.68-4.5,9.67c-0.01,0.01-0.01,0.02-0.02,0.03c-1.1,3-2.03,6.4-2.28,9.78c-0.18,2.39-3.08,8.96-7.17,17.2
				c-6.45,12.99-15.87,30.13-22.29,41.61H113.48z"/>
			<path class="st7" d="M136.95,398.55c-1.62,1.11-3.23,2.64-5.09,5.83c-2.01,3.43-7.34,19.59-12.43,35.8
				c-1.21-5.24-1.66-11.93,0.24-19.61C123.63,404.57,130.04,402.24,136.95,398.55z"/>
			<path class="st7" d="M148.86,347.83c-9.81-11.25-23.93-16.13-26.02-11.28c-2.48,5.8-6,21.33-6.88,25.32
				c-0.18-0.3-0.38-0.63-0.6-0.98c-4.97-8.06-5.65-19.46-5.65-19.46l-3.94,2.37c-4.15,2.5-6.97,6.72-7.69,11.5
				c-1.51,10.04-4.19,26.31-5.32,24.03c-1.07-2.15-18.15,21.76-29.79,38.45c4.09-8.24,6.99-14.81,7.17-17.2
				c0.25-3.38,1.19-6.78,2.28-9.78c0.01-0.01,0.01-0.02,0.02-0.03c2.44-5.17,4.18-8.89,4.5-9.67c0.01-0.01,0.01-0.03,0.01-0.04
				c0.02-0.03,0.03-0.05,0.03-0.06c0.01-0.03,0.02-0.04,0.02-0.05c0-1.18-2.02-22.37-2.15-29.86C74.61,337.39,77,315.39,77,296.26
				c0-11.93,9.27-21.3,9.27-21.3c0.51,3.19,1.11,6.2,1.79,9.05c0.14,0.57,0.28,1.13,0.43,1.69c0.18,0.73,0.38,1.45,0.58,2.17
				c0.1,0.37,0.21,0.74,0.32,1.11c0.92,3.19,1.95,6.14,3.05,8.89c0.17,0.45,0.36,0.91,0.55,1.35c0.18,0.44,0.37,0.89,0.56,1.32
				s0.38,0.86,0.57,1.28c0.14,0.33,0.3,0.65,0.45,0.97c0.19,0.41,0.38,0.81,0.58,1.21c0.15,0.34,0.32,0.65,0.48,0.98
				c0.24,0.45,0.46,0.9,0.7,1.33c0.2,0.37,0.4,0.74,0.6,1.11c0.4,0.73,0.8,1.43,1.21,2.11c0.21,0.34,0.41,0.68,0.61,1.01
				c0.41,0.66,0.82,1.3,1.22,1.93c0.41,0.62,0.82,1.21,1.22,1.79c0.2,0.29,0.4,0.58,0.61,0.85c0.4,0.56,0.81,1.11,1.21,1.62
				c0.28,0.36,0.56,0.73,0.84,1.08c0.32,0.39,0.63,0.76,0.93,1.13c0.19,0.23,0.39,0.45,0.58,0.68c1.06,1.22,2.08,2.3,3.04,3.25
				c0.42,0.41,0.82,0.8,1.21,1.16c0.34,0.32,0.67,0.62,0.99,0.9c0.31,0.27,0.6,0.52,0.88,0.75c0.15,0.13,0.28,0.24,0.42,0.34
				c0.27,0.23,0.53,0.43,0.77,0.62c0.48,0.38,0.92,0.7,1.29,0.96c0.24,0.17,0.46,0.33,0.65,0.45c0.23,0.15,0.41,0.26,0.53,0.34
				c0.07,0.04,0.13,0.07,0.16,0.1c0.03,0.01,0.05,0.02,0.05,0.03c-0.01-0.02-0.04-0.06-0.07-0.14c-0.03-0.05-0.05-0.11-0.1-0.17
				c-0.24-0.43-0.72-1.29-1.35-2.37c-0.16-0.29-0.34-0.6-0.53-0.92c-0.56-0.98-1.21-2.08-1.89-3.21
				c-2.16-3.58-1.79-15.46-1.44-26.84c0.36-11.38,2.48-14.03,6.98-15.64c11.02-3.95,13.75,9.62,18.8,24.98
				c5.06,15.36,4.69,26.27,6.49,30.14c1.01,2.17,2.6,4.7,4.37,8.36c0.2,0.4,0.4,0.82,0.59,1.26
				C147.75,345.14,148.3,346.43,148.86,347.83z"/>
			<path class="st7" d="M115.75,362.81c0,0,0.07-0.34,0.21-0.94C119.94,368.41,115.75,362.81,115.75,362.81z"/>
			<g>
				<path class="st8" d="M116.43,449.77c5.82-18.85,13-41.27,15.42-45.39c4.3-7.32,7.17-5.95,12.26-10.61
					c5.09-4.66,9.97-29.76,6.77-40.15c-3.2-10.4-6.83-15.42-8.63-19.28c-1.79-3.86-1.43-14.78-6.49-30.13
					c-5.06-15.36-7.78-28.93-18.8-24.98c-4.5,1.61-6.61,4.26-6.97,15.64c-0.36,11.38-0.72,23.26,1.43,26.84
					c2.15,3.59,3.94,6.82,3.94,6.82s-22.6-12.8-29.09-53.57c0,0-9.27,9.37-9.27,21.3c0,19.13-2.4,41.13-2.15,54.85
					C74.98,358.6,77,379.8,77,380.97c0,0.35-6.15,10.08-6.86,19.62c-0.29,3.87-7.67,18.63-15.72,33.73"/>
				<path class="st8" d="M115.36,328.53c1.43,3.58,1.04,9.63,1.6,18.8c0.56,9.16,2.71,12.45,2.71,12.45"/>
				<path class="st8" d="M117.51,352.53c0,0-1.79,8.62-2.15,14"/>
				<path class="st8" d="M89.91,338.75c0,0,2.84,23.12,2.85,31.01"/>
				<path class="st8" d="M134.59,400.59c-8.11,5.02-12.42,6.81-14.92,16.49"/>
				<path class="st8" d="M77,380.97c2.87-6.55,4.12-21.2,4.12-21.2"/>
			</g>
		</g>
		<g>
			<path class="st9" d="M84.05,343.35l46.75-14.58V75.64L84.05,61.06c-2.79-0.87-5.07,0.71-5.07,3.55V339.8
				C78.97,342.63,81.26,344.22,84.05,343.35z"/>
			<path class="st10" d="M130.8,75.65v253.12l-41.1,12.82c-2.8,0.87-5.65-1.22-5.65-4.16V66.99c0-2.94,2.85-5.03,5.65-4.16
				L130.8,75.65z"/>
			<g>
				<defs>
					<path id="XMLID_143_" d="M320.49,80.91v242.21c0,1.59-0.7,3.01-1.81,3.97c-0.92,0.81-2.13,1.3-3.45,1.3H130.26V75.65h184.96
						C318.13,75.65,320.49,78,320.49,80.91z"/>
				</defs>
				<use xlink:href="#XMLID_143_"  style="overflow:visible;fill:#FBA23F;"/>
				<clipPath id="XMLID_3_">
					<use xlink:href="#XMLID_143_"  style="overflow:visible;"/>
				</clipPath>
				<path class="st11" d="M318.68,176.1v150.99c-0.92,0.81-2.13,1.3-3.45,1.3H130.26V77.38h177.83c2.43,0,4.4,1.97,4.4,4.4v89.67
					l1.78,0.07C316.74,171.62,318.68,173.64,318.68,176.1z"/>
				<use xlink:href="#XMLID_143_"  style="overflow:visible;fill:none;stroke:#263238;stroke-miterlimit:10;"/>
			</g>
			<g>
				<defs>
					<path id="XMLID_144_" d="M316.04,242.81v64.31c0,2.3-1.74,4.25-4.04,4.49l-2.14,0.24l-18.68,2.05v-77.86l20.82,2.28
						C314.3,238.56,316.04,240.5,316.04,242.81z"/>
				</defs>
				<use xlink:href="#XMLID_144_"  style="overflow:visible;fill:#999999;"/>
				<clipPath id="XMLID_4_">
					<use xlink:href="#XMLID_144_"  style="overflow:visible;"/>
				</clipPath>
				<path class="st12" d="M316.04,242.81v3.07l-6.18,1.15v64.81l-18.68,2.05v-77.86l20.82,2.28
					C314.3,238.56,316.04,240.5,316.04,242.81z"/>
				
					<use xlink:href="#XMLID_144_"  style="overflow:visible;fill:none;stroke:#263238;stroke-linecap:round;stroke-linejoin:round;stroke-miterlimit:10;"/>
			</g>
			<g>
				<defs>
					<path id="XMLID_142_" d="M316.04,170.31v64.31c0,2.3-1.74,4.25-4.04,4.5l-4.23,0.46v80.22c0,2.48-1.79,4.54-4.16,4.94
						c-0.28,0.05-0.57,0.08-0.86,0.08l-172.43-0.15V79.97l172.43,0.14c0.29,0,0.58,0.03,0.86,0.08c2.37,0.4,4.16,2.46,4.16,4.94
						v80.22l4.23,0.46C314.3,166.06,316.04,168,316.04,170.31z"/>
				</defs>
				<use xlink:href="#XMLID_142_"  style="overflow:visible;fill:#FFFFFF;"/>
				<clipPath id="XMLID_5_">
					<use xlink:href="#XMLID_142_"  style="overflow:visible;"/>
				</clipPath>
				<path class="st13" d="M316.04,170.31v64.31c0,2.3-1.74,4.25-4.04,4.5l-4.23,0.46v80.22c0,2.48-1.79,4.54-4.16,4.94V80.2
					c2.37,0.4,4.16,2.46,4.16,4.94v80.22l4.23,0.46C314.3,166.06,316.04,168,316.04,170.31z"/>
				<g class="st14">
					<g>
						<polygon class="st15" points="206.45,113.52 206.45,162.28 153.39,162.28 153.39,99.83 192.75,99.83 201.96,109.03 						"/>
						<polygon class="st16" points="201.96,109.03 201.96,135.92 157.87,135.92 157.87,104.01 196.94,104.01 						"/>
						<polygon class="st8" points="201.96,109.03 201.96,135.92 157.87,135.92 157.87,104.01 196.94,104.01 						"/>
						<g>
							<path class="st2" d="M171.28,152.08c0.21,0.02,0.45,0.02,0.65,0.02c0.6,0,1.09-0.22,1.09-1.15v-9.2h1.9v9.06
								c0,2.41-1.29,3.03-2.72,3.03c-0.34,0-0.6,0-0.91-0.03V152.08z"/>
							<path class="st2" d="M181.82,144.73v1.57c0,1.93-0.93,2.98-2.83,2.98h-0.9v4.53h-1.9v-12.06h2.79
								C180.89,141.75,181.82,142.8,181.82,144.73z M178.1,143.47v4.08h0.9c0.6,0,0.93-0.28,0.93-1.14v-1.81
								c0-0.86-0.33-1.14-0.93-1.14H178.1z"/>
							<path class="st2" d="M185.54,147.09h2.65v3.82c0,1.93-0.96,3.03-2.83,3.03c-1.86,0-2.83-1.1-2.83-3.03v-6.27
								c0-1.93,0.96-3.03,2.83-3.03c1.86,0,2.83,1.1,2.83,3.03v1.17h-1.79v-1.29c0-0.86-0.38-1.19-0.98-1.19
								c-0.6,0-0.98,0.33-0.98,1.19v6.51c0,0.86,0.38,1.17,0.98,1.17c0.6,0,0.98-0.31,0.98-1.17v-2.22h-0.86V147.09z"/>
						</g>
						<polygon class="st15" points="206.45,113.52 192.75,113.52 192.75,99.83 201.96,109.03 						"/>
						<polygon class="st15" points="201.96,122.42 201.96,135.92 157.87,135.92 157.87,129.3 169.95,119.97 181.17,129.44 
							195.76,117.01 						"/>
						<circle class="st15" cx="173.29" cy="112.47" r="4.54"/>
					</g>
					<g>
						<polygon class="st17" points="280.16,113.52 280.16,162.28 227.1,162.28 227.1,99.83 266.47,99.83 275.67,109.03 						"/>
						<polygon class="st16" points="275.67,109.03 275.67,135.92 231.58,135.92 231.58,104.01 270.65,104.01 						"/>
						<polygon class="st8" points="275.67,109.03 275.67,135.92 231.58,135.92 231.58,104.01 270.65,104.01 						"/>
						<g>
							<line class="st8" x1="238.48" y1="127.53" x2="268.77" y2="127.53"/>
							<path class="st8" d="M237.9,113.52c0,0,0,14.08,15.73,14.08s15.73-14.08,15.73-14.08"/>
							<path class="st18" d="M239.22,113.52c0,0.73-0.59,1.33-1.33,1.33c-0.73,0-1.33-0.59-1.33-1.33c0-0.73,0.59-1.33,1.33-1.33
								C238.63,112.19,239.22,112.79,239.22,113.52z"/>
							<path class="st18" d="M270.68,113.52c0,0.73-0.59,1.33-1.33,1.33c-0.73,0-1.33-0.59-1.33-1.33c0-0.73,0.59-1.33,1.33-1.33
								C270.09,112.19,270.68,112.79,270.68,113.52z"/>
							<g>
								<rect x="236.73" y="126.43" class="st18" width="2.33" height="2.33"/>
								<rect x="252.46" y="126.43" class="st18" width="2.33" height="2.33"/>
								<rect x="268.19" y="126.43" class="st18" width="2.33" height="2.33"/>
							</g>
						</g>
						<polygon class="st18" points="280.16,113.52 266.47,113.52 266.47,99.83 275.67,109.03 						"/>
						<g>
							<path class="st2" d="M246.58,146.83h2.6v1.72h-2.6v3.53h3.27v1.72h-5.17v-12.06h5.17v1.72h-3.27V146.83z"/>
							<path class="st2" d="M256.64,144.73v1.57c0,1.93-0.93,2.98-2.83,2.98h-0.9v4.53h-1.89v-12.06h2.79
								C255.71,141.75,256.64,142.8,256.64,144.73z M252.91,143.47v4.08h0.9c0.6,0,0.93-0.28,0.93-1.14v-1.81
								c0-0.86-0.33-1.14-0.93-1.14H252.91z"/>
							<path class="st2" d="M260.06,141.61c1.84,0,2.79,1.1,2.79,3.03v0.38h-1.79v-0.5c0-0.86-0.34-1.19-0.95-1.19
								c-0.6,0-0.95,0.33-0.95,1.19c0,0.88,0.38,1.53,1.62,2.62c1.59,1.4,2.08,2.39,2.08,3.77c0,1.93-0.96,3.03-2.83,3.03
								c-1.86,0-2.83-1.1-2.83-3.03v-0.74h1.79v0.86c0,0.86,0.38,1.17,0.98,1.17c0.6,0,0.98-0.31,0.98-1.17
								c0-0.88-0.38-1.53-1.62-2.62c-1.58-1.4-2.08-2.39-2.08-3.77C257.27,142.71,258.22,141.61,260.06,141.61z"/>
						</g>
					</g>
					<g>
						<polygon class="st18" points="280.16,186.76 280.16,235.52 227.1,235.52 227.1,173.07 266.47,173.07 275.67,182.27 						"/>
						<polygon class="st16" points="275.67,182.27 275.67,209.16 231.58,209.16 231.58,177.25 270.65,177.25 						"/>
						<polygon class="st8" points="275.67,182.27 275.67,209.16 231.58,209.16 231.58,177.25 270.65,177.25 						"/>
						<polygon class="st18" points="280.16,186.76 266.47,186.76 266.47,173.07 275.67,182.27 						"/>
						<g>
							<ellipse class="st2" cx="255.15" cy="200.11" rx="5.27" ry="3.46"/>
							<path class="st2" d="M254.51,181.72l-3.62,18.39h-1.01l2.65-13.45l0.69-3.49C254.03,182.49,254.46,181.81,254.51,181.72
								L254.51,181.72z"/>
							<path class="st2" d="M254.51,181.73l-0.89,4.45c0,0-0.39,0.25-1.09,0.49c-0.8,0.28-2.01,0.55-3.49,0.43
								c-2.7-0.23-3.94,1.99-4.01,2.12c0.05-0.2,1.09-4.13,4.74-4.53c1.52-0.16,2.67-0.85,3.45-1.52
								C254.03,182.49,254.46,181.81,254.51,181.73z"/>
						</g>
						<g>
							<path class="st2" d="M247.07,220.62h-0.03l-0.67,6.43h-2.6l-1.34-12.06h1.84l1,9.51h0.03l0.9-9.51h1.83l0.93,9.58h0.03
								l0.96-9.58h1.65l-1.34,12.06h-2.52L247.07,220.62z"/>
							<path class="st2" d="M258.42,227.04h-1.91l-0.33-2.19h-2.33l-0.33,2.19h-1.74l1.93-12.06h2.77L258.42,227.04z M254.09,223.22
								h1.83l-0.9-6.1h-0.04L254.09,223.22z"/>
							<path class="st2" d="M261.71,224.82h0.03l1.43-9.84h1.74l-1.86,12.06h-2.83l-1.86-12.06h1.91L261.71,224.82z"/>
						</g>
					</g>
					<g>
						<polygon class="st19" points="206.45,260 206.45,308.76 153.39,308.76 153.39,246.3 192.75,246.3 201.96,255.51 						"/>
						<polygon class="st16" points="201.96,255.51 201.96,282.4 157.86,282.4 157.86,250.49 196.94,250.49 						"/>
						<polygon class="st8" points="201.96,255.51 201.96,282.4 157.86,282.4 157.86,250.49 196.94,250.49 						"/>
						<polygon class="st20" points="206.45,260 192.75,260 192.75,246.3 201.96,255.51 						"/>
						<g>
							<polyline class="st8" points="173.97,260.03 165.92,268.09 173.97,276.14 							"/>
							<polyline class="st8" points="185.85,276.14 193.91,268.09 185.85,260.03 							"/>
							<line class="st8" x1="181.84" y1="260.01" x2="177.99" y2="276.16"/>
						</g>
						<g>
							<path class="st2" d="M168.18,300.28h-1.9v-12.06h1.9v5.17h2.15v-5.17h1.93v12.06h-1.93v-5.17h-2.15V300.28z"/>
							<path class="st2" d="M173.09,288.22h5.86v1.72h-1.98v10.34h-1.9v-10.34h-1.98V288.22z"/>
							<path class="st2" d="M183.77,296.79h0.03l1.27-8.56h2.64v12.06h-1.79v-8.65h-0.03l-1.27,8.65h-1.79l-1.38-8.53h-0.03v8.53
								h-1.65v-12.06h2.64L183.77,296.79z"/>
							<path class="st2" d="M189.09,288.22h1.9v10.34h3.12v1.72h-5.01V288.22z"/>
						</g>
					</g>
					<g>
						<polygon class="st21" points="206.45,186.76 206.45,235.52 153.39,235.52 153.39,173.07 192.75,173.07 201.96,182.27 						
							"/>
						<polygon class="st16" points="201.96,182.27 201.96,209.16 157.86,209.16 157.86,177.25 196.94,177.25 						"/>
						<polygon class="st8" points="201.96,182.27 201.96,209.16 157.86,209.16 157.86,177.25 196.94,177.25 						"/>
						<polygon class="st21" points="206.45,186.76 192.75,186.76 192.75,173.07 201.96,182.27 						"/>
						<g>
							<path class="st8" d="M175.03,194.11c0,0-1.43-2.49-5.15-0.48c-3.43,1.86-2.97,6.32,0.49,6.32c4.08,0,5.79-4.07,8.2-8.34
								c2.52-4.46,4.61-9.04,4.88-9.59c0,0-2.87,17.75-3.23,20.08c-0.36,2.33,2.6,0.45,2.87-0.63"/>
							<path class="st8" d="M190.55,193.42c0,0-4.48-1.13-6.14,3.5c-0.64,1.79,0.49,3.04,1.61,3.04c2.87,0,4.03-1.69,5.29-6.54
								c0,0-1.8,6.54-0.91,6.54c1.34,0,1.89-1.21,1.89-1.21"/>
							<line class="st8" x1="177.96" y1="193.42" x2="185.35" y2="193.42"/>
						</g>
						<g>
							<path class="st2" d="M171.01,217.88c0-1.93,1.02-3.03,2.88-3.03c1.86,0,2.88,1.1,2.88,3.03v6.27c0,1.93-1.02,3.03-2.88,3.03
								c-1.86,0-2.88-1.1-2.88-3.03V217.88z M172.91,224.27c0,0.86,0.38,1.19,0.98,1.19c0.6,0,0.98-0.33,0.98-1.19v-6.51
								c0-0.86-0.38-1.19-0.98-1.19c-0.6,0-0.98,0.33-0.98,1.19V224.27z"/>
							<path class="st2" d="M177.44,214.98h5.86v1.72h-1.98v10.34h-1.9v-10.34h-1.98V214.98z"/>
							<path class="st2" d="M186.01,220.34h2.45v1.72h-2.45v4.98h-1.89v-12.06h5.01v1.72h-3.12V220.34z"/>
						</g>
					</g>
				</g>
				<polygon class="st22" points="517.16,81.2 602.4,213.05 602.4,329.71 517.7,329.71 				"/>
				<use xlink:href="#XMLID_142_"  style="overflow:visible;fill:none;stroke:#263238;stroke-miterlimit:10;"/>
			</g>
			<g>
				<defs>
					<path id="XMLID_141_" d="M130.32,79.97v244.99l-32.08,9.7c-0.13,0.04-0.25,0.07-0.37,0.1c-2.72,0.62-4.89-1.11-4.89-4.01
						V164.24l-1.77-1.1c-0.53-0.32-0.92-2.49-0.92-5.03V87.39c0-2.54,0.39-4.57,0.92-4.7l1.77-0.46v-8c0-2.89,2.18-4.62,4.89-4.01
						c0.13,0.03,0.24,0.06,0.37,0.1L130.32,79.97z"/>
				</defs>
				<use xlink:href="#XMLID_141_"  style="overflow:visible;fill:#BFBFBF;"/>
				<clipPath id="XMLID_6_">
					<use xlink:href="#XMLID_141_"  style="overflow:visible;"/>
				</clipPath>
				<path class="st23" d="M97.86,70.22v264.54c-2.72,0.62-4.89-1.11-4.89-4.01V164.24l-1.77-1.1c-0.53-0.32-0.92-2.49-0.92-5.03
					V87.39c0-2.54,0.39-4.57,0.92-4.7l1.77-0.46v-8C92.97,71.33,95.15,69.6,97.86,70.22z"/>
				<use xlink:href="#XMLID_141_"  style="overflow:visible;fill:none;stroke:#263238;stroke-miterlimit:10;"/>
			</g>
		</g>
		<path class="st3" d="M163.32,328.39h-32.53v0.38l-13.18,4.11l-2.25-45.83c0,0,6.34-10.03,14.9-14.64c0,0,0.18,0.14,0.53,0.41
			C134.37,275.68,155.35,293.63,163.32,328.39z"/>
		<g>
			<defs>
				<path id="XMLID_146_" d="M119.66,359.77c0,0-2.15-3.28-2.71-12.45c-0.56-9.16-0.16-15.21-1.6-18.8c0,0-1.79-3.23-3.94-6.82
					c-2.15-3.59-1.79-15.46-1.43-26.84c0.36-11.38,2.47-14.03,6.97-15.64c11.02-3.95,13.74,9.62,18.8,24.98
					c5.06,15.36,4.7,26.27,6.49,30.13c1.79,3.86,5.42,8.88,8.63,19.28"/>
			</defs>
			<use xlink:href="#XMLID_146_"  style="overflow:visible;fill:#FFFFFF;"/>
			<clipPath id="XMLID_7_">
				<use xlink:href="#XMLID_146_"  style="overflow:visible;"/>
			</clipPath>
			<path class="st24" d="M147.49,344.57c-5.56-6.23-11.06-10.41-11.74-12.33c-1.07-3.01,2.66-18.53-2.86-23.68
				c-5.52-5.15-12.55,0.52-16.17-0.75c-3.62-1.27-3.2-7.69-3.2-20c0-6,3.98-8.36,8.07-9.19c7.31,0.99,9.91,12.66,14.18,25.59
				c5.06,15.36,4.69,26.27,6.49,30.14C143.42,336.87,145.38,339.89,147.49,344.57z"/>
			
				<use xlink:href="#XMLID_146_"  style="overflow:visible;fill:none;stroke:#263238;stroke-linecap:round;stroke-linejoin:round;stroke-miterlimit:10;"/>
		</g>
	</g>
</g>
<g id="Left_Hand">
	<g>
		<g>
			<path class="st6" d="M292.33,313.56c0,0,2.3,9.71,1.94,12.34c-0.36,2.62,2.37,2.63,2.39,2.63c0.9,9.83,1.22,19.38,0.47,23.3
				c-1.43,7.53,5.73,15.49,12.01,29.43c6.27,13.95,10.58,16.51,17.39,23.12c6.81,6.6,5.85,12.96,10.09,20.72
				c2.46,4.49,6.61,24.73,9.68,41h72.5c-10.62-20.42-26.9-51.71-28.81-55.37c-2.87-5.48-1.43-8.31-6.09-18.54
				c0,0-5.24-75.14-9.61-80.33c-4.37-5.19-18.59-11.64-22.6-15.59c-4-3.94-20.88-26.17-26.78-27.61c-5.9-1.43-19.71,9.32-19.71,9.32
				s-4.96-7.29-12.09-3.97c-4.73,2.2-4.52,10.01-2.99,18.26c-0.07,0.11-2.5,4.02-3.74,6.15c-1.25,2.15-3.76,14.34-3.76,15.6
				C282.61,315.08,288.23,318.49,292.33,313.56z"/>
			<path class="st7" d="M329.39,336.17c0,0,4.97,7.05,2.16,7.2c-2.8,0.15-11-3.71-15.51-15.04c-1.05-2.64-2.27-5.4-3.55-8.1
				c-2.95-6.23-12.05-5.45-13.88,1.21l-1.95,7.1c-0.02,0-2.76-0.01-2.39-2.63c0.33-2.33-1.44-10.22-1.85-11.99l0.74-1.5l-9.86-2.49
				c0.37-1.81,0.84-3.98,1.33-5.95c0.07-0.28,0.14-0.55,0.21-0.82c0.01-0.05,0.02-0.09,0.04-0.14c0.05-0.23,0.11-0.44,0.17-0.65
				c0.48-1.82,0.96-3.32,1.32-3.94c1.23-2.12,3.67-6.04,3.74-6.14c-1.54-8.26-1.74-16.06,2.99-18.26
				c7.13-3.33,12.09,3.97,12.09,3.97s0.2-0.15,0.55-0.43c0.08-0.05,0.17-0.12,0.27-0.19c1.16-0.87,3.45-2.52,6.13-4.16
				c0.39-0.24,0.79-0.48,1.2-0.72c1.83-1.08,3.78-2.1,5.63-2.84c0.66-0.25,1.31-0.48,1.94-0.66c0.21-0.05,0.42-0.12,0.63-0.16
				c1.07,4.43,2.16,11.45,1.39,19.87l6.47,9.87c0,0,1.11,5.21,4.18,10.14c3.06,4.92,4.74,10.14,4.74,10.14s1.2-1,2.86,0.72
				c0,0-4.91,6.07-6.4,10.22C333.28,333.95,329.39,336.17,329.39,336.17z"/>
			<path class="st7" d="M377.44,364.63c-0.89-24.23-4.71-37.36-4.71-37.36s0.95,19.6-1.68,24.97c0,0-2.16-17.51-0.96-28.89
				c1.2-11.38-24.65-26.96-25.71-35.54c3.26,3.87,5.98,7.15,7.3,8.46c4.01,3.95,18.22,10.4,22.59,15.59c4.3,5.11,9.45,78,9.62,80.28
				C381.14,386.99,377.93,378.17,377.44,364.63z"/>
			<path class="st7" d="M341.61,442.94c-1.87-8.46-3.67-15.43-4.99-17.84c-3.91-7.12-3.41-13.07-8.59-19.11
				c1.02,0.81,1.88,1.41,2.52,1.73c4.41,2.24,9.42,11.8,10.62,18.49C341.78,429.62,341.77,436.76,341.61,442.94z"/>
			<g>
				<path class="st8" d="M290.11,292.26c0,0-2.49,4-3.74,6.16c-1.25,2.15-3.76,14.34-3.76,15.6c0,1.25,7.72,5.73,11.66-3.77"/>
				<path class="st8" d="M343.4,452.46c-3-14.15-6.05-28.19-12.43-41.67c-3.62-8.16-11.78-12.69-17.22-19.94
					c-6.34-9.97-9.97-20.84-15.41-30.81c-1.81-13.59-0.91-27.19-2.72-41.69c-1.81-9.97-4.53-19.94-6.34-29.91
					c0-5.44-1.81-10.87,3.62-14.5c4.53-1.81,9.06,0.91,12.29,4.03c4.77-3.66-0.4-0.55,0,0c4.93-4.03,10.37-9.47,16.71-8.56
					c14.5,0.91,19.94,18.12,29.91,27.19c2.72,2.72,6.34,3.62,9.06,6.34c5.44,3.62,12.69,5.44,14.5,11.78
					c6.34,26.28,5.44,50.75,9.06,77.03c0.91,4.53,1.81,9.97,3.62,14.5c4.53,9.97,9.52,19.71,14.6,29.35"/>
				<path class="st8" d="M305.19,277.98c4.3,4.48,9.68,17.93,12.37,27.43c2.69,9.5,1.97,21.33,1.97,21.33s3.94,6.09,7.53,12.19
					c3.59,6.09,7.71,4.84,7.71,4.84"/>
				<path class="st8" d="M322.91,332.09c0,0,3.97,1.1,7.19-2.66c3.23-3.76,1.08-8.07,12.19-9.86"/>
				<path class="st8" d="M333.56,323.34c0,0-0.59-5.94-3.81-11.49c-3.23-5.55-2.69-9.67-2.69-9.67s-8.07-6.87-8.78-9.92"/>
				<path class="st8" d="M319.98,279.23c0,0-0.43,4.95-0.81,7.71c-0.72,5.32-1.85,6.72-5.14,7.93"/>
				<path class="st8" d="M317.56,305.41c0,0,2.51,2.05,6.63,2.79c0,0-0.72,6.36,0.72,7.97c1.43,1.61,4.12,2.86,4.48,5.55"/>
				<path class="st8" d="M319.28,315.29c0,0,1.33,1.06,4.2,0.88"/>
				<path class="st8" d="M327.24,327.27c0,0-3.13,3.28-5.86,2.36"/>
				<path class="st8" d="M292.33,313.56c0,0,2.3,9.71,1.94,12.34c-0.37,2.63,2.39,2.63,2.39,2.63"/>
				<path class="st8" d="M327.06,302.18c0,0,2.02-3.94,3.7-4.84"/>
				<path class="st8" d="M324.31,334.35c0,0,4.88,0.64,8.3,4.4"/>
				<path class="st8" d="M351.68,296.26c7.11,8.6,13.56,13.44,16.79,17.3c3.23,3.85-0.1,12.34,1.62,27.87"/>
				<path class="st8" d="M358.56,315.29c0,0-1.22,6.79,2.2,11.99"/>
				<path class="st8" d="M326.52,404.38c9.68,7.68,10.04,9.83,12.19,14.49"/>
				<path class="st8" d="M383.89,392.18c-5.38-8.45-6.45-22.43-6.45-22.43"/>
			</g>
		</g>
		<g>
			<polygon class="st18" points="316.37,257.86 305.95,305.49 254.12,294.16 267.46,233.14 305.92,241.55 312.95,252.51 			"/>
			<polygon class="st16" points="312.95,252.51 307.2,278.78 264.12,269.36 270.94,238.19 309.12,246.54 			"/>
			<polygon class="st8" points="312.95,252.51 307.2,278.78 264.12,269.36 270.94,238.19 309.12,246.54 			"/>
			<g>
				<line class="st8" x1="280.55" y1="245.62" x2="305.73" y2="251.12"/>
				<line class="st8" x1="276.4" y1="247.64" x2="305.12" y2="253.92"/>
				<line class="st8" x1="275.79" y1="250.44" x2="304.51" y2="256.73"/>
				<line class="st8" x1="275.17" y1="253.25" x2="303.89" y2="259.53"/>
				<line class="st8" x1="274.56" y1="256.05" x2="303.28" y2="262.33"/>
				<line class="st8" x1="273.95" y1="258.85" x2="302.67" y2="265.13"/>
				<line class="st8" x1="273.34" y1="261.65" x2="302.05" y2="267.93"/>
				<line class="st8" x1="272.72" y1="264.45" x2="297.9" y2="269.96"/>
			</g>
			<text transform="matrix(0.9769 0.2137 -0.2137 0.9769 268.5918 288.6224)" class="st2 st25 st26">TXT</text>
			<polygon class="st18" points="316.37,257.86 303,254.93 305.92,241.55 312.95,252.51 			"/>
		</g>
		<g>
			<defs>
				<path id="XMLID_145_" d="M309.14,381.27c-6.27-13.95-13.44-21.91-12.01-29.43c1.43-7.53-1.08-35.85-4.03-46.96
					s-7.21-27.5,0-30.86c7.13-3.32,12.09,3.97,12.09,3.97c4.3,4.48,9.68,17.93,12.37,27.43c2.69,9.5,1.97,21.33,1.97,21.33
					s3.94,6.09,7.53,12.19c3.59,6.09,7.71,4.84,7.71,4.84"/>
			</defs>
			<use xlink:href="#XMLID_145_"  style="overflow:visible;fill:#FFFFFF;"/>
			<clipPath id="XMLID_8_">
				<use xlink:href="#XMLID_145_"  style="overflow:visible;"/>
			</clipPath>
			<path class="st27" d="M308.55,325.9c0,0-11.89,1.3-11.04,16.76c-0.25-11.66-2.21-29.51-4.4-37.79
				c-2.07-7.77-4.77-18.11-3.74-24.78c3.24-2.26,7.06-3.66,10.78-2.11c9.3,3.86,7.62,13.59,7.62,13.59s-10.82,1.84-11.11,8.18
				C296.36,306.1,304.13,306.1,308.55,325.9z"/>
			
				<use xlink:href="#XMLID_145_"  style="overflow:visible;fill:none;stroke:#263238;stroke-linecap:round;stroke-linejoin:round;stroke-miterlimit:10;"/>
		</g>
	</g>
</g>
</svg>
